<svg width="145" height="34" viewBox="0 0 145 34" fill="none" xmlns="http://www.w3.org/2000/svg">
<path d="M106.959 8.72727V0H108.557L111.335 6.78409H111.437L114.216 0H115.814V8.72727H114.561V2.41193H114.48L111.906 8.71449H110.866L108.293 2.40767H108.212V8.72727H106.959Z" fill="white"/>
<path fill-rule="evenodd" clip-rule="evenodd" d="M121.466 7.83239C121.223 8.32244 120.613 8.87216 119.531 8.87216C118.287 8.87216 117.319 8.16477 117.319 6.87784C117.319 5.39062 118.589 5.06676 119.829 4.92188C119.965 4.90613 120.092 4.89231 120.209 4.87948C121.109 4.78117 121.483 4.74039 121.483 4.32955V4.29972C121.483 3.55824 121.061 3.12784 120.238 3.12784C119.382 3.12784 118.904 3.57528 118.717 4.03977L117.52 3.76705C117.946 2.57386 119.037 2.09659 120.221 2.09659C121.261 2.09659 122.761 2.47585 122.761 4.38068V8.72727H121.517V7.83239H121.466ZM118.568 6.89489C118.568 7.52557 119.088 7.84943 119.808 7.84943C120.869 7.84943 121.487 7.14205 121.487 6.36648V5.52273C121.321 5.68877 120.5 5.79533 120.04 5.85509C119.993 5.86128 119.949 5.86696 119.91 5.87216C119.173 5.97017 118.568 6.21307 118.568 6.89489Z" fill="white"/>
<path d="M124.458 8.72727H125.732V4.73011C125.732 3.87358 126.393 3.25568 127.296 3.25568C127.56 3.25568 127.859 3.30256 127.961 3.33239V2.11364C127.833 2.09659 127.582 2.08381 127.42 2.08381C126.653 2.08381 125.996 2.51847 125.758 3.22159H125.69V2.18182H124.458V8.72727Z" fill="white"/>
<path d="M133.494 2.18182H134.862L132.489 8.72727H131.125L128.747 2.18182H130.115L131.773 7.21875H131.841L133.494 2.18182Z" fill="white"/>
<path fill-rule="evenodd" clip-rule="evenodd" d="M138.646 8.85938C140.074 8.85938 141.084 8.15625 141.374 7.09091L140.168 6.87358C139.938 7.49148 139.384 7.80682 138.659 7.80682C137.568 7.80682 136.835 7.09943 136.801 5.83807H141.455V5.38636C141.455 3.02131 140.04 2.09659 138.557 2.09659C136.733 2.09659 135.531 3.4858 135.531 5.49716C135.531 7.52983 136.716 8.85938 138.646 8.85938ZM136.805 4.88352C136.857 3.95455 137.53 3.14915 138.565 3.14915C139.554 3.14915 140.202 3.8821 140.206 4.88352H136.805Z" fill="white"/>
<path d="M142.868 0H144.142V8.72727H142.868V0Z" fill="white"/>
<path d="M0 6.54553V32.7274H3.75852V13.7685H4.00142L11.723 32.689H14.8423L22.5639 13.7813H22.8068V32.7274H26.5653V6.54553H21.7713L13.4361 26.8978H13.1293L4.79403 6.54553H0Z" fill="white"/>
<path fill-rule="evenodd" clip-rule="evenodd" d="M41.1328 33.1237C45.4155 33.1237 48.4453 31.0143 49.3146 27.8183L45.6967 27.1663C45.0064 29.02 43.3445 29.966 41.1712 29.966C37.8984 29.966 35.6996 27.8438 35.5973 24.0597H49.5575V22.7046C49.5575 15.6095 45.3132 12.8353 40.8643 12.8353C35.3928 12.8353 31.7876 17.0029 31.7876 23.037C31.7876 29.135 35.3416 33.1237 41.1328 33.1237ZM35.6101 21.1961C35.7635 18.4092 37.7834 15.993 40.8899 15.993C43.8558 15.993 45.799 18.1918 45.8118 21.1961H35.6101Z" fill="white"/>
<path d="M61.0856 12.8353C65.3299 12.8353 67.7205 14.8296 68.5131 17.885L65.0487 18.4987C64.6012 17.1819 63.5018 15.8651 61.1239 15.8651C58.9506 15.8651 57.3143 16.939 57.3271 18.4475C57.3143 19.7771 58.2475 20.5058 60.408 21.0171L63.5273 21.733C67.1325 22.564 68.8967 24.2771 68.8967 27.0512C68.8967 30.6052 65.6112 33.1237 60.8683 33.1237C56.4577 33.1237 53.5685 31.1677 52.9293 27.6904L56.6239 27.1279C57.0842 29.0583 58.5543 30.0427 60.8427 30.0427C63.3484 30.0427 64.9719 28.8538 64.9719 27.3325C64.9719 26.1052 64.0898 25.2614 62.1978 24.8396L58.8739 24.1109C55.1921 23.2927 53.5046 21.439 53.5046 18.6521C53.5046 15.1748 56.6495 12.8353 61.0856 12.8353Z" fill="white"/>
<path d="M82.2656 13.091H78.2386V8.38644H74.4162V13.091H71.5398V16.1592H74.4162V27.7543C74.4034 31.3211 77.1264 33.047 80.1435 32.983C81.358 32.9702 82.1761 32.7401 82.6236 32.5739L81.9332 29.4163C81.904 29.4221 81.8719 29.4288 81.8371 29.4361C81.5675 29.4922 81.1344 29.5825 80.5909 29.5825C79.3509 29.5825 78.2386 29.1734 78.2386 26.9617V16.1592H82.2656V13.091Z" fill="white"/>
<path fill-rule="evenodd" clip-rule="evenodd" d="M103.708 22.9987C103.708 29.0711 100.09 33.1237 94.5543 33.1237C89.0188 33.1237 85.4009 29.0711 85.4009 22.9987C85.4009 16.8879 89.0188 12.8353 94.5543 12.8353C100.09 12.8353 103.708 16.8879 103.708 22.9987ZM89.2617 22.9859C89.2617 26.7572 90.9492 29.9149 94.5671 29.9149C98.1594 29.9149 99.8469 26.7572 99.8469 22.9859C99.8469 19.2274 98.1594 16.0313 94.5671 16.0313C90.9492 16.0313 89.2617 19.2274 89.2617 22.9859Z" fill="white"/>
</svg>
